<svg xmlns="http://www.w3.org/2000/svg" viewBox="0 0 196 196"><defs><style>.a{fill:#fc4;}</style></defs><title>stencil-tools-logo</title><path class="a" d="M155.79,108.65H131.65L143.35,67a.9.9,0,0,0-1.61-.76l-41,53.74a1.88,1.88,0,0,0,1.4,3H126.3l-11.69,41.7a.9.9,0,0,0,1.61.76l41-53.72A1.9,1.9,0,0,0,155.79,108.65Z"/><path d="M64.41,79.8l0,40.5a2,2,0,0,0,2,2H80.48a2,2,0,0,0,2-2c0-3.45.06-10.71.06-14.16V79.8Z"/><path d="M104.46,65.3a2,2,0,0,0,2-2v-11a2,2,0,0,0-2-2c-3.45,0-62-.05-62-.05a2,2,0,0,0-2,2v11a2,2,0,0,0,2,2C45.9,65.27,104.46,65.3,104.46,65.3Z"/></svg>